<svg width="16" height="9" viewBox="0 0 16 9" fill="none" xmlns="http://www.w3.org/2000/svg">
<path d="M14.9845 1.67395L8.33451 7.85229C8.25534 7.92562 8.16958 7.97744 8.07721 8.00775C7.98485 8.03855 7.88589 8.05395 7.78034 8.05395C7.67478 8.05395 7.57583 8.03855 7.48346 8.00775C7.3911 7.97744 7.30534 7.92562 7.22617 7.85229L0.55638 1.67396C0.371658 1.50284 0.279297 1.28896 0.279297 1.03229C0.279297 0.775622 0.378255 0.555623 0.576172 0.372289C0.774088 0.188956 1.00499 0.0972891 1.26888 0.097289C1.53277 0.097289 1.76367 0.188956 1.96159 0.372289L7.78034 5.76229L13.5991 0.372289C13.7838 0.201177 14.0113 0.115622 14.2815 0.115622C14.5523 0.115622 14.7866 0.207289 14.9845 0.390621C15.1824 0.573955 15.2814 0.787844 15.2814 1.03229C15.2814 1.27673 15.1824 1.49062 14.9845 1.67395Z" fill="black"/>
</svg>
