<svg width="62" height="20" viewBox="0 0 62 20" fill="none" xmlns="http://www.w3.org/2000/svg">
<path d="M10.0087 0.813477L18.1624 5.52097V14.936L10.0087 19.6435L1.85512 14.936V5.52097L10.0087 0.813477Z" fill="white"/>
<path d="M23.8108 14.3054C22.3543 11.7826 22.3543 8.67449 23.8108 6.15175C25.2673 3.62901 27.959 2.07494 30.872 2.07494C33.785 2.07494 36.4768 3.62901 37.9333 6.15175C39.3898 8.67449 39.3898 11.7826 37.9333 14.3054C36.4768 16.8281 33.785 18.3822 30.872 18.3822C27.959 18.3822 25.2673 16.8281 23.8108 14.3054Z" fill="white"/>
<path d="M42.832 10.2286L56.9545 2.07494L56.9545 18.3822L42.832 10.2286Z" fill="#FF7795"/>
</svg>
