<svg width="25" height="25" viewBox="0 0 25 25" fill="none" xmlns="http://www.w3.org/2000/svg">
<path d="M12.9902 3.82812C11.2102 3.82812 9.47015 4.35597 7.99011 5.3449C6.51006 6.33383 5.35651 7.73944 4.67532 9.38397C3.99413 11.0285 3.8159 12.8381 4.16317 14.5839C4.51044 16.3298 5.3676 17.9334 6.62628 19.1921C7.88495 20.4508 9.4886 21.3079 11.2344 21.6552C12.9803 22.0025 14.7899 21.8242 16.4344 21.143C18.0789 20.4619 19.4845 19.3083 20.4735 17.8283C21.4624 16.3482 21.9902 14.6082 21.9902 12.8281C21.9902 12.3681 21.9502 11.9081 21.8902 11.4681C21.3906 12.1688 20.7304 12.7396 19.9649 13.1328C19.1994 13.526 18.3508 13.7301 17.4902 13.7281C16.3454 13.7282 15.2302 13.3646 14.3054 12.6898C13.3806 12.015 12.6941 11.0639 12.3448 9.97373C11.9955 8.88353 12.0015 7.71055 12.3619 6.62398C12.7223 5.53741 13.4186 4.59341 14.3502 3.92812C13.9102 3.86812 13.4502 3.82812 12.9902 3.82812Z" fill="black"/>
</svg>
