<svg width="25" height="25" viewBox="0 0 25 25" fill="none" xmlns="http://www.w3.org/2000/svg">
<path d="M12.9902 18.8281C11.3989 18.8281 9.87281 18.196 8.74759 17.0708C7.62238 15.9455 6.99023 14.4194 6.99023 12.8281C6.99023 11.2368 7.62238 9.7107 8.74759 8.58548C9.87281 7.46027 11.3989 6.82812 12.9902 6.82812C14.5815 6.82812 16.1077 7.46027 17.2329 8.58548C18.3581 9.7107 18.9902 11.2368 18.9902 12.8281C18.9902 14.4194 18.3581 15.9455 17.2329 17.0708C16.1077 18.196 14.5815 18.8281 12.9902 18.8281ZM11.9902 1.82812H13.9902V4.82812H11.9902V1.82812ZM11.9902 20.8281H13.9902V23.8281H11.9902V20.8281ZM4.50523 5.75712L5.91923 4.34313L8.04023 6.46413L6.62623 7.87813L4.50523 5.75712ZM17.9402 19.1921L19.3542 17.7781L21.4752 19.8991L20.0612 21.3131L17.9402 19.1921ZM20.0612 4.34212L21.4752 5.75712L19.3542 7.87813L17.9402 6.46413L20.0612 4.34313V4.34212ZM6.62623 17.7781L8.04023 19.1921L5.91923 21.3131L4.50523 19.8991L6.62623 17.7781ZM23.9902 11.8281V13.8281H20.9902V11.8281H23.9902ZM4.99023 11.8281V13.8281H1.99023V11.8281H4.99023Z" fill="black"/>
</svg>
