<svg width="12" height="12" viewBox="0 0 12 12" fill="none" xmlns="http://www.w3.org/2000/svg">
<path fill-rule="evenodd" clip-rule="evenodd" d="M5.55721 0.773071C2.5194 0.773071 0.0566406 3.18002 0.0566406 6.149C0.0566406 9.11798 2.5194 11.5249 5.55721 11.5249C8.59503 11.5249 11.0578 9.11798 11.0578 6.149C11.0578 3.18002 8.59503 0.773071 5.55721 0.773071ZM7.94146 5.23998C7.98536 5.19093 8.01878 5.1338 8.03976 5.07194C8.06074 5.01008 8.06885 4.94475 8.06361 4.87978C8.05837 4.81482 8.03989 4.75153 8.00925 4.69365C7.97862 4.63577 7.93645 4.58446 7.88523 4.54274C7.834 4.50102 7.77476 4.46974 7.71098 4.45072C7.64721 4.43171 7.58018 4.42536 7.51385 4.43204C7.44753 4.43872 7.38324 4.45829 7.32477 4.48961C7.26629 4.52093 7.21482 4.56337 7.17338 4.61441L5.02316 7.13572L3.91054 6.04783C3.81623 5.95881 3.68991 5.90955 3.5588 5.91066C3.42769 5.91178 3.30227 5.96317 3.20956 6.05379C3.11684 6.1444 3.06425 6.26698 3.06311 6.39512C3.06198 6.52326 3.11238 6.64671 3.20347 6.73888L4.70362 8.20505C4.75276 8.25304 4.81158 8.2905 4.87635 8.31504C4.94111 8.33958 5.0104 8.35066 5.0798 8.34758C5.14919 8.3445 5.21716 8.32732 5.27939 8.29714C5.34161 8.26697 5.39672 8.22445 5.4412 8.1723L7.94146 5.23998Z" fill="#007AFF"/>
</svg>
